<svg width="52" height="53" viewBox="0 0 52 53" fill="none" xmlns="http://www.w3.org/2000/svg">
<g filter="url(#filter0_d_1050_2808)">
<path d="M16 16V30C16 30.83 16.94 31.3 17.6 30.8L19.31 29.52C19.71 29.22 20.27 29.26 20.63 29.62L22.29 31.29C22.68 31.68 23.32 31.68 23.71 31.29L25.39 29.61C25.74 29.26 26.3 29.22 26.69 29.52L28.4 30.8C29.06 31.29 30 30.82 30 30V13C30 11.9 30.9 11 32 11H21H20C17 11 16 12.79 16 15V16Z" fill="#5ED5A8"/>
<path d="M32.01 11V12.5C32.67 12.5 33.3 12.77 33.76 13.22C34.24 13.71 34.5 14.34 34.5 15V17.42C34.5 18.16 34.17 18.5 33.42 18.5H31.5V13.01C31.5 12.73 31.73 12.5 32.01 12.5V11ZM32.01 11C30.9 11 30 11.9 30 13.01V20H33.42C35 20 36 19 36 17.42V15C36 13.9 35.55 12.9 34.83 12.17C34.1 11.45 33.11 11.01 32.01 11C32.02 11 32.01 11 32.01 11Z" fill="#5ED5A8"/>
</g>
<defs>
<filter id="filter0_d_1050_2808" x="0" y="0" width="52" height="52.582" filterUnits="userSpaceOnUse" color-interpolation-filters="sRGB">
<feFlood flood-opacity="0" result="BackgroundImageFix"/>
<feColorMatrix in="SourceAlpha" type="matrix" values="0 0 0 0 0 0 0 0 0 0 0 0 0 0 0 0 0 0 127 0" result="hardAlpha"/>
<feOffset dy="5"/>
<feGaussianBlur stdDeviation="8"/>
<feComposite in2="hardAlpha" operator="out"/>
<feColorMatrix type="matrix" values="0 0 0 0 0.368627 0 0 0 0 0.835294 0 0 0 0 0.658824 0 0 0 0.25 0"/>
<feBlend mode="normal" in2="BackgroundImageFix" result="effect1_dropShadow_1050_2808"/>
<feBlend mode="normal" in="SourceGraphic" in2="effect1_dropShadow_1050_2808" result="shape"/>
</filter>
</defs>
</svg>
