<svg width="54" height="52" viewBox="0 0 54 52" fill="none" xmlns="http://www.w3.org/2000/svg">
<g filter="url(#filter0_d_1050_2664)">
<path d="M35.83 17.01L29.28 11.77C28 10.75 26 10.74 24.73 11.76L18.18 17.01C17.24 17.76 16.67 19.26 16.87 20.44L18.13 27.98C18.42 29.67 19.99 31 21.7 31H32.3C33.99 31 35.59 29.64 35.88 27.97L37.14 20.43C37.32 19.26 36.75 17.76 35.83 17.01ZM27.75 27C27.75 27.41 27.41 27.75 27 27.75C26.59 27.75 26.25 27.41 26.25 27V24C26.25 23.59 26.59 23.25 27 23.25C27.41 23.25 27.75 23.59 27.75 24V27Z" fill="#5ED5A8"/>
</g>
<defs>
<filter id="filter0_d_1050_2664" x="0.830078" y="0" width="52.343" height="52" filterUnits="userSpaceOnUse" color-interpolation-filters="sRGB">
<feFlood flood-opacity="0" result="BackgroundImageFix"/>
<feColorMatrix in="SourceAlpha" type="matrix" values="0 0 0 0 0 0 0 0 0 0 0 0 0 0 0 0 0 0 127 0" result="hardAlpha"/>
<feOffset dy="5"/>
<feGaussianBlur stdDeviation="8"/>
<feComposite in2="hardAlpha" operator="out"/>
<feColorMatrix type="matrix" values="0 0 0 0 0.368627 0 0 0 0 0.835294 0 0 0 0 0.658824 0 0 0 0.25 0"/>
<feBlend mode="normal" in2="BackgroundImageFix" result="effect1_dropShadow_1050_2664"/>
<feBlend mode="normal" in="SourceGraphic" in2="effect1_dropShadow_1050_2664" result="shape"/>
</filter>
</defs>
</svg>
