<svg width="366" height="60" viewBox="0 0 366 60" fill="none" xmlns="http://www.w3.org/2000/svg">
<rect width="366" height="60" rx="12" fill="#3E474F" fill-opacity="0.1"/>
<rect x="1" y="1" width="364" height="58" rx="11" stroke="#3E474F" stroke-opacity="0.5" stroke-width="2" stroke-dasharray="4 5"/>
<path fill-rule="evenodd" clip-rule="evenodd" d="M138 30C138 35.5228 133.523 40 128 40C122.477 40 118 35.5228 118 30C118 24.4772 122.477 20 128 20C133.523 20 138 24.4772 138 30ZM128.75 29.25H132C132.41 29.25 132.75 29.59 132.75 30C132.75 30.41 132.41 30.75 132 30.75H128.75V34C128.75 34.41 128.41 34.75 128 34.75C127.59 34.75 127.25 34.41 127.25 34V30.75H124C123.59 30.75 123.25 30.41 123.25 30C123.25 29.59 123.59 29.25 124 29.25H127.25V26C127.25 25.59 127.59 25.25 128 25.25C128.41 25.25 128.75 25.59 128.75 26V29.25Z" fill="#777777"/>
<path d="M156.801 33.778L157.935 37H159.609L154.875 24.13H153.075L148.323 37H149.997L151.131 33.778H156.801ZM151.671 32.338L153.957 25.624H153.993L156.279 32.338H151.671ZM167.533 24.13V29.008H167.497C166.957 28.216 166.093 27.568 164.617 27.568C162.313 27.568 160.477 29.386 160.477 32.41C160.477 35.434 162.313 37.252 164.617 37.252C166.093 37.252 166.957 36.568 167.497 35.866H167.533V37H168.973V24.13H167.533ZM164.761 35.992C162.871 35.992 161.917 34.21 161.917 32.41C161.917 30.61 162.871 28.828 164.761 28.828C166.471 28.828 167.533 30.25 167.533 32.41C167.533 34.57 166.471 35.992 164.761 35.992ZM177.957 24.13V29.008H177.921C177.381 28.216 176.517 27.568 175.041 27.568C172.737 27.568 170.901 29.386 170.901 32.41C170.901 35.434 172.737 37.252 175.041 37.252C176.517 37.252 177.381 36.568 177.921 35.866H177.957V37H179.397V24.13H177.957ZM175.185 35.992C173.295 35.992 172.341 34.21 172.341 32.41C172.341 30.61 173.295 28.828 175.185 28.828C176.895 28.828 177.957 30.25 177.957 32.41C177.957 34.57 176.895 35.992 175.185 35.992ZM187.763 29.746V25.57H194.873V24.13H186.143V37H187.763V31.186H193.505V29.746H187.763ZM201.615 30.16C201.615 31.078 200.913 31.276 199.365 31.564C196.989 32.014 195.441 32.554 195.441 34.642C195.441 36.19 196.611 37.252 198.465 37.252C199.977 37.252 201.003 36.712 201.579 35.848H201.615C201.867 36.856 202.389 37.09 203.253 37.09C203.523 37.09 203.721 37.072 204.099 36.946V35.938C203.181 36.046 203.055 35.65 203.055 34.93V30.466C203.055 28.252 201.489 27.568 199.743 27.568C197.079 27.568 195.981 28.9 195.891 30.664H197.331C197.421 29.332 197.997 28.828 199.743 28.828C201.219 28.828 201.615 29.44 201.615 30.16ZM198.609 35.992C197.421 35.992 196.881 35.47 196.881 34.57C196.881 33.472 197.709 33.022 199.491 32.644C200.463 32.446 201.345 32.194 201.615 31.924V33.454C201.615 35.218 200.319 35.992 198.609 35.992ZM204.521 27.82L207.815 37H209.453L212.747 27.82H211.181L208.643 35.56H208.625L206.087 27.82H204.521ZM218.049 37.252C215.241 37.252 213.549 35.272 213.549 32.41C213.549 29.548 215.241 27.568 218.049 27.568C220.839 27.568 222.531 29.548 222.531 32.41C222.531 35.272 220.839 37.252 218.049 37.252ZM218.049 35.992C220.101 35.992 221.091 34.372 221.091 32.41C221.091 30.448 220.101 28.828 218.049 28.828C215.979 28.828 214.989 30.448 214.989 32.41C214.989 34.372 215.979 35.992 218.049 35.992ZM228.474 27.568C227.16 27.568 226.422 28.432 225.936 29.638H225.9V27.82H224.46V37H225.9V32.104C225.9 30.142 227.286 28.738 229.284 29.062H229.32V27.622C229.068 27.586 228.816 27.568 228.474 27.568ZM232.005 26.038C232.419 26.038 232.905 25.732 232.905 25.174C232.905 24.616 232.419 24.31 232.005 24.31C231.609 24.31 231.105 24.616 231.105 25.174C231.105 25.732 231.609 26.038 232.005 26.038ZM231.285 27.82V37H232.725V27.82H231.285ZM239.356 29.08V27.82H237.556V24.76H236.116V27.82H234.766V29.08H236.116V34.75C236.116 36.622 237.052 37.108 238.276 37.108C238.654 37.108 239.032 37.072 239.356 37V35.74C238.132 35.83 237.556 35.65 237.556 34.606V29.08H239.356ZM245.155 35.992C243.157 35.992 242.167 34.444 242.167 32.788H249.421C249.421 29.53 248.017 27.568 245.137 27.568C242.455 27.568 240.727 29.35 240.727 32.41C240.727 35.29 242.419 37.252 245.209 37.252C247.495 37.252 248.809 35.884 249.277 34.174H247.837C247.675 34.804 246.991 35.992 245.155 35.992ZM245.137 28.828C246.865 28.828 247.981 30.052 247.981 31.528H242.167C242.167 30.052 243.409 28.828 245.137 28.828Z" fill="#777777"/>
</svg>
