<svg width="52" height="52" viewBox="0 0 52 52" fill="none" xmlns="http://www.w3.org/2000/svg">
<g filter="url(#filter0_d_1050_2913)">
<path d="M28.85 12.9498V16.7498H27.35V12.9498C27.35 12.6798 27.11 12.5498 26.95 12.5498C26.9 12.5498 26.85 12.5598 26.8 12.5798L18.87 15.5698C18.34 15.7698 18 16.2698 18 16.8398V17.5098C17.09 18.1898 16.5 19.2798 16.5 20.5098V16.8398C16.5 15.6498 17.23 14.5898 18.34 14.1698L26.28 11.1698C26.5 11.0898 26.73 11.0498 26.95 11.0498C27.95 11.0498 28.85 11.8598 28.85 12.9498Z" fill="#5ED5A8"/>
<path d="M35.5002 23.5V24.5C35.5002 24.77 35.2902 24.99 35.0102 25H33.5502C33.0202 25 32.5402 24.61 32.5002 24.09C32.4702 23.78 32.5902 23.49 32.7902 23.29C32.9702 23.1 33.2202 23 33.4902 23H35.0002C35.2902 23.01 35.5002 23.23 35.5002 23.5Z" fill="#5ED5A8"/>
<path d="M33.48 21.95H34.5C35.05 21.95 35.5 21.5 35.5 20.95V20.51C35.5 18.44 33.81 16.75 31.74 16.75H20.26C19.41 16.75 18.63 17.03 18 17.51C17.09 18.19 16.5 19.28 16.5 20.51V27.24C16.5 29.31 18.19 31 20.26 31H31.74C33.81 31 35.5 29.31 35.5 27.24V27.05C35.5 26.5 35.05 26.05 34.5 26.05H33.63C32.67 26.05 31.75 25.46 31.5 24.53C31.29 23.77 31.54 23.04 32.04 22.55C32.41 22.17 32.92 21.95 33.48 21.95ZM28 21.75H21C20.59 21.75 20.25 21.41 20.25 21C20.25 20.59 20.59 20.25 21 20.25H28C28.41 20.25 28.75 20.59 28.75 21C28.75 21.41 28.41 21.75 28 21.75Z" fill="#5ED5A8"/>
</g>
<defs>
<filter id="filter0_d_1050_2913" x="0.5" y="0.0498047" width="51" height="51.9502" filterUnits="userSpaceOnUse" color-interpolation-filters="sRGB">
<feFlood flood-opacity="0" result="BackgroundImageFix"/>
<feColorMatrix in="SourceAlpha" type="matrix" values="0 0 0 0 0 0 0 0 0 0 0 0 0 0 0 0 0 0 127 0" result="hardAlpha"/>
<feOffset dy="5"/>
<feGaussianBlur stdDeviation="8"/>
<feComposite in2="hardAlpha" operator="out"/>
<feColorMatrix type="matrix" values="0 0 0 0 0.368627 0 0 0 0 0.835294 0 0 0 0 0.658824 0 0 0 0.25 0"/>
<feBlend mode="normal" in2="BackgroundImageFix" result="effect1_dropShadow_1050_2913"/>
<feBlend mode="normal" in="SourceGraphic" in2="effect1_dropShadow_1050_2913" result="shape"/>
</filter>
</defs>
</svg>
